<svg width="28" height="28" viewBox="0 0 28 28" fill="none" xmlns="http://www.w3.org/2000/svg">
<path fill-rule="evenodd" clip-rule="evenodd" d="M11.9046 4.95005C8.06337 4.95005 4.95005 8.06266 4.95005 11.9015C4.95005 15.7403 8.06337 18.8529 11.9046 18.8529C13.8263 18.8529 15.5644 18.0751 16.824 16.8151C18.0826 15.5562 18.8592 13.8204 18.8592 11.9015C18.8592 8.06266 15.7459 4.95005 11.9046 4.95005ZM3.05005 11.9015C3.05005 7.0126 7.01475 3.05005 11.9046 3.05005C16.7945 3.05005 20.7592 7.0126 20.7592 11.9015C20.7592 14.0025 20.026 15.9336 18.8029 17.4512L24.6723 23.3288C25.043 23.7 25.0426 24.3015 24.6713 24.6723C24.3001 25.043 23.6986 25.0426 23.3278 24.6713L17.4595 18.7948C15.9408 20.019 14.0078 20.7529 11.9046 20.7529C7.01475 20.7529 3.05005 16.7903 3.05005 11.9015Z" fill="#AAAAAA"/>
</svg>
